<svg width="32" height="32" viewBox="0 0 32 32" fill="none" xmlns="http://www.w3.org/2000/svg">
  <rect width="32" height="32" rx="8" fill="#4CAF50" />
  <path d="M16 6C10.477 6 6 10.477 6 16C6 21.523 10.477 26 16 26C21.523 26 26 21.523 26 16C26 10.477 21.523 6 16 6ZM16 8C20.418 8 24 11.582 24 16C24 20.418 20.418 24 16 24C11.582 24 8 20.418 8 16C8 11.582 11.582 8 16 8Z" fill="white" />
  <path d="M16 10C16.552 10 17 10.448 17 11V15H21C21.552 15 22 15.448 22 16C22 16.552 21.552 17 21 17H16C15.448 17 15 16.552 15 16V11C15 10.448 15.448 10 16 10Z" fill="white" />
  <path d="M10 13C10.552 13 11 13.448 11 14V18H12C12.552 18 13 18.448 13 19C13 19.552 12.552 20 12 20H10C9.448 20 9 19.552 9 19V14C9 13.448 9.448 13 10 13Z" fill="white" />
  <path d="M19 19C19.552 19 20 19.448 20 20V21C20 21.552 19.552 22 19 22C18.448 22 18 21.552 18 21V20C18 19.448 18.448 19 19 19Z" fill="white" />
</svg>